<?xml version="1.0" standalone="no"?>
<!DOCTYPE svg PUBLIC "-//W3C//DTD SVG 20010904//EN"
 "http://www.w3.org/TR/2001/REC-SVG-20010904/DTD/svg10.dtd">
<svg version="1.0" xmlns="http://www.w3.org/2000/svg"
 width="580.000000pt" height="720.000000pt" viewBox="0 0 580.000000 720.000000"
 preserveAspectRatio="xMidYMid meet">

<g transform="translate(0.000000,720.000000) scale(0.100000,-0.100000)"
fill="#000000" stroke="none">
<path d="M0 3600 l0 -3600 1064 0 1065 0 5 43 c3 23 7 256 10 517 2 275 8 491
14 514 12 44 43 80 122 140 65 50 379 256 391 256 4 0 5 -49 2 -109 -3 -60 0
-264 7 -453 6 -189 13 -440 15 -558 1 -118 3 -246 4 -283 l1 -68 28 3 27 3 -2
255 c-2 223 -21 744 -39 1059 l-6 104 24 -17 c53 -39 93 -50 175 -51 69 0 86
3 112 22 16 13 32 23 34 23 2 0 0 -29 -4 -65 -19 -158 -69 -1086 -69 -1284 0
-47 2 -51 25 -51 20 0 25 6 29 33 5 32 17 282 19 387 1 30 9 237 19 460 10
223 18 442 18 488 0 45 2 82 5 82 8 0 114 -70 120 -79 3 -6 49 -39 103 -74
133 -87 240 -174 259 -211 14 -26 17 -105 24 -536 4 -278 8 -515 8 -527 l1
-23 1095 0 1095 0 0 3600 0 3600 -2900 0 -2900 0 0 -3600z m3420 193 c-1 -71
-7 -202 -14 -293 -7 -91 -12 -169 -10 -175 3 -6 83 -10 212 -11 114 0 228 -4
254 -8 46 -7 47 -8 37 -34 -45 -118 -189 -347 -276 -438 -76 -80 -77 -82 -63
-99 8 -10 30 -15 65 -15 81 0 352 -54 372 -74 11 -10 -90 -147 -147 -198 -32
-30 -102 -75 -156 -104 -103 -52 -124 -76 -82 -94 13 -5 30 -14 38 -19 8 -5
62 -32 120 -60 130 -62 169 -92 154 -118 -17 -28 -137 -64 -237 -70 -54 -4
-94 -11 -102 -20 -19 -19 -6 -58 54 -156 28 -45 51 -88 51 -94 0 -7 -24 -4
-72 8 -40 11 -106 22 -146 26 -47 4 -71 10 -69 17 59 147 58 145 108 172 67
37 99 88 100 162 1 66 -17 116 -54 152 -26 24 -27 29 -27 140 0 63 -7 169 -15
235 -15 129 -65 327 -88 354 -8 9 -23 36 -34 61 -28 65 -113 152 -207 213
-103 68 -146 84 -237 92 -168 14 -347 -54 -475 -180 -143 -142 -177 -269 -201
-755 -5 -109 -7 -117 -34 -145 -35 -38 -49 -74 -49 -129 0 -60 49 -132 106
-158 26 -11 45 -27 49 -41 4 -12 25 -59 48 -104 22 -45 39 -84 36 -87 -11 -11
-223 -106 -227 -101 -3 2 10 46 27 96 40 113 37 118 -59 101 -39 -7 -97 -12
-129 -12 l-59 0 54 120 c29 65 60 133 68 149 21 39 13 55 -37 77 -47 20 -207
124 -207 133 0 3 23 19 51 35 28 16 96 64 150 108 138 111 147 132 72 174 -27
15 -91 53 -143 86 -52 32 -123 73 -157 91 -35 17 -63 35 -63 38 0 4 93 37 206
75 169 56 208 73 217 91 11 24 6 47 -95 448 -27 110 -50 205 -51 210 -3 15 27
7 128 -32 103 -40 207 -89 283 -133 49 -29 52 -33 52 -70 0 -42 24 -57 34 -22
3 9 12 44 21 77 9 33 36 123 60 200 25 77 49 160 55 184 6 23 13 41 15 40 2
-2 24 -32 49 -67 26 -34 89 -112 141 -172 52 -61 95 -116 95 -124 0 -18 40
-28 57 -14 7 6 13 18 13 28 0 9 68 82 152 161 84 79 164 156 178 171 14 15 28
27 33 27 4 1 7 -56 7 -126z m-403 -526 c113 -30 267 -155 316 -257 145 -301
116 -1094 -48 -1288 -42 -50 -137 -119 -212 -154 -80 -38 -157 -46 -244 -28
l-59 13 0 61 c0 33 -3 71 -6 84 -6 19 -3 22 24 22 16 0 74 -11 128 -25 53 -14
100 -23 102 -20 13 13 -13 36 -60 51 -58 18 -212 30 -254 20 -24 -6 -25 -8
-10 -25 17 -19 23 -131 7 -131 -31 0 -184 158 -219 225 -25 49 -93 263 -109
343 -33 163 -15 644 28 772 7 19 31 65 55 102 113 177 370 284 561 235z m-722
-1123 c9 -52 14 -98 11 -102 -14 -13 -58 46 -63 84 -4 35 17 114 30 114 3 0
12 -43 22 -96z m1246 29 c8 -14 14 -48 14 -75 0 -44 -4 -53 -33 -80 -19 -16
-35 -28 -37 -26 -5 6 30 208 36 208 3 0 12 -12 20 -27z m-804 -500 c-3 -10 -5
-2 -5 17 0 19 2 27 5 18 2 -10 2 -26 0 -35z m-236 -116 c-34 -17 -38 -37 -8
-37 13 0 30 -7 37 -15 29 -35 -25 -77 -101 -77 -46 1 -51 -1 -46 -19 3 -10 2
-19 -2 -19 -13 0 -45 45 -47 68 -2 20 -1 22 12 11 17 -14 29 -3 40 39 3 12 10
22 14 22 8 0 -2 -49 -14 -69 -7 -10 16 -21 44 -21 11 0 20 8 22 22 2 12 10 24
18 26 13 4 13 3 2 -10 -7 -9 -9 -19 -4 -22 13 -8 50 4 56 19 7 19 -19 38 -43
30 -10 -3 -22 -1 -26 5 -11 17 23 60 48 60 22 0 22 0 -2 -13z m79 -67 c0 -5
-4 -10 -10 -10 -5 0 -10 5 -10 10 0 6 5 10 10 10 6 0 10 -4 10 -10z m245 -27
c39 -10 84 -13 128 -10 63 5 66 5 57 -13 -30 -55 -181 -52 -250 6 -33 28 -40
51 -12 39 9 -4 44 -14 77 -22z"/>
<path d="M3155 2734 c-60 -19 -146 -46 -190 -60 -99 -31 -152 -28 -285 16 -61
20 -124 34 -175 37 -72 5 -82 3 -98 -15 -15 -16 -16 -25 -8 -40 26 -48 180
-117 346 -154 48 -10 60 -17 60 -33 0 -18 -8 -19 -187 -20 -206 0 -204 -1
-176 60 16 36 -3 56 -31 31 -60 -55 -38 -209 41 -283 84 -79 245 -82 332 -5
36 32 66 113 66 180 l0 62 43 0 44 0 -1 -77 c-1 -109 27 -165 107 -212 49 -28
69 -34 116 -34 102 0 206 72 230 160 24 84 7 184 -32 191 -14 3 -17 -4 -14
-45 l2 -48 -179 -3 c-99 -1 -183 1 -188 6 -4 4 -3 22 2 39 9 25 22 35 73 53
128 47 253 120 284 167 16 25 16 26 -6 44 -31 25 -48 24 -176 -17z m100 -40
c-43 -36 -180 -101 -250 -119 -85 -21 -234 -19 -320 4 -87 24 -195 72 -214 94
-12 15 -10 17 17 17 43 0 162 -27 192 -44 40 -22 130 -46 174 -46 24 0 113 25
211 59 94 32 181 59 195 59 l25 1 -30 -25z m-605 -284 c8 -13 12 -13 32 -1 24
15 107 16 121 2 5 -5 0 -29 -11 -54 -35 -80 -124 -121 -209 -98 -62 17 -129
79 -147 138 -8 26 10 30 127 29 59 0 81 -4 87 -16z m434 -16 c16 -10 26 -12
31 -5 4 7 51 11 121 11 115 0 115 0 109 -22 -33 -106 -149 -171 -248 -139 -68
23 -106 67 -122 139 l-7 32 47 0 c25 0 56 -7 69 -16z"/>
<path d="M2820 2234 c-6 -14 -10 -61 -10 -105 0 -90 19 -123 68 -117 53 6 96
122 77 207 -12 56 -30 29 -35 -55 -6 -77 -21 -124 -40 -124 -5 0 -17 11 -26
25 -12 19 -15 44 -13 110 4 86 -3 106 -21 59z"/>
<path d="M2482 2178 c2 -12 18 -31 37 -42 61 -35 231 -15 231 28 0 23 -12 26
-47 11 -51 -21 -131 -19 -178 5 -48 25 -47 25 -43 -2z"/>
<path d="M3026 2162 c-7 -12 28 -48 66 -68 55 -28 198 -1 198 37 0 8 -12 9
-37 3 -66 -15 -137 -9 -175 14 -39 24 -44 26 -52 14z"/>
<path d="M2631 1736 c-26 -31 24 -75 52 -47 9 9 6 13 -10 17 -12 3 -23 15 -25
27 -3 19 -4 19 -17 3z"/>
<path d="M3058 1659 c-11 -11 -31 -19 -50 -19 -42 0 -23 -21 20 -22 37 -1 62
17 62 43 0 24 -10 23 -32 -2z"/>
<path d="M2586 1367 c-41 -74 -135 -235 -163 -279 -12 -21 -23 -43 -23 -50 0
-7 -16 -39 -35 -71 -19 -32 -35 -62 -35 -66 0 -5 14 -25 30 -46 l30 -38 0
-193 c0 -118 -4 -195 -10 -199 -7 -4 -7 -12 0 -25 5 -10 10 -84 10 -163 0 -79
3 -165 6 -191 6 -40 10 -47 28 -44 20 3 21 7 17 131 -2 70 0 127 5 127 5 0 44
-59 88 -130 65 -108 83 -130 102 -130 13 0 24 4 24 8 0 10 -96 171 -144 242
-21 30 -49 77 -63 104 l-25 50 28 20 c49 35 167 140 171 152 3 10 -43 68 -185
233 -79 91 -76 81 -36 153 20 34 46 86 59 113 12 28 41 82 65 120 76 123 118
225 93 225 -5 0 -21 -24 -37 -53z m-73 -707 c37 -43 67 -81 67 -84 0 -6 -132
-98 -135 -94 -8 9 -15 258 -7 258 5 0 39 -36 75 -80z"/>
<path d="M3140 1395 c0 -11 44 -110 99 -220 54 -110 107 -223 116 -251 l18
-51 -68 -89 c-38 -49 -92 -116 -122 -150 -29 -34 -53 -66 -53 -71 0 -6 41 -50
92 -98 l92 -88 -30 -56 c-16 -31 -50 -89 -77 -129 -26 -40 -61 -100 -77 -132
l-30 -60 24 0 c20 0 35 18 90 113 37 61 77 133 89 159 12 26 25 47 30 48 4 0
7 -72 7 -160 0 -153 1 -160 20 -160 20 0 20 7 20 406 0 397 0 407 21 435 12
17 19 38 16 47 -24 78 -228 475 -263 512 -12 12 -14 12 -14 -5z m200 -806 l0
-172 -48 44 c-26 24 -63 56 -82 70 l-35 27 32 38 c18 22 54 67 80 101 27 34
49 62 51 63 1 0 2 -77 2 -171z"/>
</g>
</svg>
