<svg width="481" height="760" viewBox="0 0 481 760" fill="none" xmlns="http://www.w3.org/2000/svg">
<g clip-path="url(#clip0)">
<rect width="480" height="760" transform="translate(0.236328)" fill="black"/>
<g clip-path="url(#clip1)">
<rect width="679.389" height="478.829" transform="translate(-99.0767 281.171)" fill="#222222"/>
<path d="M-99.0762 338.309V760H25.5566H150.306L150.892 754.963C151.244 752.269 151.712 724.976 152.063 694.404C152.298 662.191 153.001 636.89 153.703 634.196C155.109 629.042 158.74 624.825 167.994 617.796C175.608 611.94 212.389 587.81 213.794 587.81C214.263 587.81 214.38 593.549 214.028 600.577C213.677 607.606 214.028 631.501 214.848 653.64C215.551 675.779 216.371 705.18 216.605 719.002C216.723 732.824 216.957 747.818 217.074 752.152L217.191 760.117L220.471 759.766L223.634 759.414L223.399 729.545C223.165 703.423 220.939 642.395 218.831 605.497L218.128 593.315L220.939 595.306C227.148 599.875 231.833 601.163 241.438 601.28C249.521 601.28 251.512 600.929 254.558 598.703C256.432 597.18 258.306 596.009 258.54 596.009C258.774 596.009 258.54 599.406 258.072 603.623C255.846 622.13 249.989 730.833 249.989 754.026C249.989 759.532 250.223 760 252.918 760C255.26 760 255.846 759.297 256.315 756.135C256.9 752.386 258.306 723.102 258.54 710.803C258.657 707.289 259.594 683.041 260.766 656.92C261.937 630.799 262.874 605.146 262.874 599.757C262.874 594.486 263.108 590.152 263.46 590.152C264.397 590.152 276.813 598.352 277.516 599.406C277.868 600.109 283.256 603.974 289.581 608.074C305.16 618.265 317.694 628.456 319.919 632.79C321.559 635.835 321.911 645.089 322.731 695.575C323.199 728.139 323.668 755.9 323.668 757.306L323.785 760H452.049H580.313V338.309V-83.3821H240.618H-99.0762V338.309ZM301.529 315.702C301.412 324.018 300.709 339.363 299.889 350.023C299.069 360.682 298.484 369.819 298.718 370.522C299.069 371.224 308.44 371.693 323.551 371.81C336.904 371.81 350.258 372.279 353.303 372.747C358.691 373.567 358.809 373.684 357.637 376.73C352.366 390.552 335.499 417.376 325.308 428.035C316.405 437.406 316.288 437.641 317.928 439.632C318.865 440.803 321.442 441.389 325.542 441.389C335.03 441.389 366.774 447.714 369.117 450.057C370.405 451.228 358.574 467.276 351.898 473.25C348.149 476.764 339.95 482.035 333.624 485.432C321.559 491.523 319.099 494.335 324.019 496.443C325.542 497.029 327.533 498.083 328.47 498.669C329.407 499.254 335.733 502.417 342.527 505.697C357.754 512.959 362.323 516.473 360.566 519.519C358.574 522.799 344.518 527.016 332.804 527.719C326.479 528.187 321.794 529.007 320.857 530.061C318.631 532.287 320.154 536.855 327.182 548.335C330.462 553.606 333.156 558.643 333.156 559.345C333.156 560.165 330.345 559.814 324.722 558.408C320.037 557.12 312.306 555.831 307.62 555.363C302.115 554.894 299.303 554.191 299.538 553.371C306.449 536.152 306.332 536.387 312.188 533.224C320.037 528.89 323.785 522.916 323.902 514.248C324.019 506.517 321.911 500.66 317.577 496.443C314.531 493.632 314.414 493.046 314.414 480.044C314.414 472.664 313.594 460.248 312.657 452.517C310.9 437.406 305.043 414.213 302.349 411.051C301.412 409.996 299.655 406.834 298.366 403.905C295.087 396.291 285.13 386.101 274.119 378.955C262.054 370.99 257.017 369.116 246.358 368.179C226.679 366.539 205.712 374.504 190.718 389.263C173.968 405.897 169.985 420.773 167.174 477.701C166.588 490.469 166.354 491.406 163.191 494.686C159.092 499.137 157.452 503.354 157.452 509.797C157.452 516.825 163.191 525.259 169.868 528.304C172.914 529.593 175.139 531.467 175.608 533.107C176.076 534.512 178.536 540.018 181.23 545.289C183.807 550.56 185.799 555.128 185.447 555.48C184.159 556.768 159.326 567.896 158.857 567.311C158.506 567.076 160.029 561.922 162.02 556.066C166.705 542.829 166.354 542.243 155.109 544.235C150.541 545.055 143.747 545.64 139.998 545.64H133.087L139.413 531.584C142.81 523.97 146.441 516.005 147.378 514.131C149.838 509.562 148.901 507.688 143.044 505.111C137.539 502.769 118.797 490.586 118.797 489.532C118.797 489.181 121.491 487.306 124.771 485.432C128.051 483.558 136.016 477.936 142.341 472.782C158.506 459.779 159.56 457.32 150.775 452.4C147.612 450.643 140.116 446.192 134.025 442.326C127.933 438.578 119.617 433.775 115.634 431.667C111.534 429.675 108.255 427.567 108.255 427.216C108.255 426.747 119.148 422.881 132.385 418.43C152.181 411.871 156.749 409.879 157.803 407.771C159.092 404.96 158.506 402.265 146.675 355.294C143.513 342.409 140.818 331.281 140.701 330.695C140.35 328.938 143.864 329.875 155.695 334.443C167.76 339.129 179.942 344.869 188.844 350.023C194.584 353.42 194.935 353.888 194.935 358.222C194.935 363.142 197.747 364.899 198.918 360.799C199.269 359.745 200.324 355.645 201.378 351.78C202.432 347.914 205.595 337.372 208.406 328.352C211.334 319.333 214.146 309.611 214.848 306.799C215.551 304.105 216.371 301.997 216.605 302.114C216.84 302.348 219.417 305.862 222.345 309.962C225.391 313.945 232.77 323.081 238.861 330.109C244.952 337.255 249.989 343.697 249.989 344.634C249.989 346.743 254.675 347.914 256.666 346.274C257.486 345.571 258.189 344.166 258.189 342.994C258.189 341.94 266.154 333.389 275.993 324.135C285.833 314.882 295.204 305.862 296.844 304.105C298.484 302.348 300.123 300.942 300.709 300.942C301.178 300.825 301.529 307.502 301.529 315.702ZM254.323 377.315C267.56 380.83 285.599 395.472 291.338 407.419C308.323 442.678 304.926 535.567 285.716 558.291C280.796 564.148 269.668 572.23 260.883 576.33C251.512 580.781 242.493 581.718 232.302 579.61L225.391 578.087V570.942C225.391 567.076 225.039 562.625 224.688 561.102C223.985 558.877 224.336 558.525 227.499 558.525C229.373 558.525 236.167 559.814 242.492 561.454C248.701 563.094 254.206 564.148 254.44 563.797C255.963 562.274 252.918 559.58 247.412 557.823C240.618 555.714 222.579 554.309 217.66 555.48C214.848 556.183 214.731 556.417 216.488 558.408C218.48 560.634 219.182 573.753 217.308 573.753C213.677 573.753 195.755 555.246 191.655 547.397C188.727 541.658 180.762 516.591 178.888 507.22C175.022 488.126 177.131 431.784 182.167 416.79C182.987 414.565 185.799 409.177 188.61 404.842C201.846 384.109 231.95 371.576 254.323 377.315ZM169.751 508.86C170.805 514.951 171.391 520.339 171.04 520.808C169.4 522.33 164.246 515.419 163.66 510.968C163.191 506.868 165.651 497.614 167.174 497.614C167.525 497.614 168.58 502.651 169.751 508.86ZM315.703 505.463C316.64 507.103 317.342 511.085 317.342 514.248C317.342 519.402 316.874 520.456 313.477 523.619C311.251 525.493 309.377 526.899 309.143 526.664C308.557 525.961 312.657 502.3 313.36 502.3C313.711 502.3 314.765 503.706 315.703 505.463ZM221.525 564.031C221.174 565.202 220.939 564.265 220.939 562.04C220.939 559.814 221.174 558.877 221.525 559.931C221.759 561.102 221.759 562.977 221.525 564.031ZM193.881 577.619C189.898 579.61 189.43 581.953 192.944 581.953C194.467 581.953 196.458 582.773 197.278 583.71C200.675 587.81 194.35 592.729 185.447 592.729C180.059 592.612 179.473 592.846 180.059 594.955C180.41 596.126 180.293 597.18 179.825 597.18C178.302 597.18 174.554 591.909 174.319 589.215C174.085 586.872 174.202 586.638 175.725 587.927C177.716 589.567 179.122 588.278 180.41 583.358C180.762 581.953 181.582 580.781 182.05 580.781C182.987 580.781 181.816 586.521 180.41 588.864C179.59 590.035 182.285 591.324 185.564 591.324C186.853 591.324 187.907 590.387 188.141 588.747C188.376 587.341 189.313 585.935 190.25 585.701C191.773 585.233 191.773 585.35 190.484 586.872C189.664 587.927 189.43 589.098 190.016 589.449C191.538 590.387 195.872 588.981 196.575 587.224C197.395 584.998 194.35 582.773 191.538 583.71C190.367 584.061 188.961 583.827 188.493 583.124C187.204 581.133 191.187 576.096 194.115 576.096C196.692 576.096 196.692 576.096 193.881 577.619ZM203.135 585.467C203.135 586.052 202.666 586.638 201.963 586.638C201.378 586.638 200.792 586.052 200.792 585.467C200.792 584.764 201.378 584.295 201.963 584.295C202.666 584.295 203.135 584.764 203.135 585.467ZM231.833 588.629C236.401 589.801 241.673 590.152 246.827 589.801C254.206 589.215 254.558 589.215 253.503 591.324C249.989 597.766 232.302 597.415 224.219 590.621C220.354 587.341 219.534 584.647 222.814 586.052C223.868 586.521 227.968 587.692 231.833 588.629Z" fill="black"/>
<path d="M193.881 577.619C189.898 579.61 189.43 581.953 192.944 581.953C194.467 581.953 196.458 582.773 197.278 583.71C200.675 587.81 194.35 592.729 185.447 592.729C180.059 592.612 179.473 592.846 180.059 594.955C180.41 596.126 180.293 597.18 179.825 597.18C178.302 597.18 174.554 591.909 174.319 589.215C174.085 586.872 174.202 586.638 175.725 587.927C177.716 589.567 179.122 588.278 180.41 583.358C180.762 581.953 181.582 580.781 182.05 580.781C182.987 580.781 181.816 586.521 180.41 588.864C179.59 590.035 182.285 591.324 185.564 591.324C186.853 591.324 187.907 590.387 188.141 588.747C188.376 587.341 189.313 585.935 190.25 585.701C191.773 585.233 191.773 585.35 190.484 586.872C189.664 587.927 189.43 589.098 190.016 589.449C191.538 590.387 195.872 588.981 196.575 587.224C197.395 584.998 194.35 582.773 191.538 583.71C190.367 584.061 188.961 583.827 188.493 583.124C187.204 581.133 191.187 576.096 194.115 576.096C196.692 576.096 196.692 576.096 193.881 577.619Z" fill="black"/>
<path d="M203.135 585.467C203.135 586.052 202.666 586.638 201.963 586.638C201.378 586.638 200.792 586.052 200.792 585.467C200.792 584.764 201.378 584.295 201.963 584.295C202.666 584.295 203.135 584.764 203.135 585.467Z" fill="black"/>
<path d="M270.488 439.749C263.46 441.974 253.386 445.137 248.232 446.777C236.635 450.408 230.427 450.057 214.848 444.903C207.703 442.56 200.323 440.92 194.349 440.569C185.916 439.983 184.744 440.217 182.87 442.326C181.113 444.2 180.996 445.254 181.933 447.011C184.978 452.634 203.017 460.716 222.462 465.05C228.085 466.221 229.49 467.041 229.49 468.916C229.49 471.024 228.553 471.141 207.586 471.258C183.456 471.258 183.69 471.375 186.97 464.23C188.844 460.013 186.618 457.671 183.339 460.599C176.31 467.041 178.887 485.08 188.141 493.749C197.981 503.002 216.839 503.354 227.03 494.334C231.247 490.586 234.761 481.098 234.761 473.25V465.987H239.798H244.952L244.835 475.007C244.718 487.775 247.998 494.334 257.369 499.84C263.108 503.119 265.451 503.822 270.956 503.822C282.904 503.822 295.086 495.388 297.898 485.08C300.709 475.241 298.718 463.527 294.149 462.707C292.509 462.356 292.158 463.176 292.509 467.979L292.744 473.601L271.776 473.952C260.18 474.07 250.34 473.835 249.755 473.25C249.286 472.781 249.403 470.673 249.989 468.681C251.043 465.753 252.566 464.582 258.54 462.473C273.533 456.968 288.175 448.417 291.807 442.911C293.681 439.983 293.681 439.866 291.104 437.757C287.473 434.829 285.481 434.946 270.488 439.749ZM282.201 444.434C277.165 448.651 261.117 456.265 252.917 458.373C242.961 460.833 225.508 460.599 215.434 457.905C205.243 455.093 192.592 449.471 190.367 446.894C188.961 445.137 189.195 444.903 192.358 444.903C197.395 444.903 211.334 448.065 214.848 450.057C219.534 452.634 230.076 455.445 235.23 455.445C238.041 455.445 248.466 452.516 259.946 448.534C270.956 444.785 281.147 441.623 282.787 441.623L285.715 441.506L282.201 444.434ZM211.334 477.701C212.271 479.224 212.74 479.224 215.082 477.818C217.894 476.061 227.616 475.944 229.256 477.584C229.842 478.169 229.256 480.981 227.967 483.909C223.868 493.28 213.443 498.083 203.486 495.388C196.224 493.397 188.375 486.135 186.267 479.224C185.33 476.178 187.438 475.71 201.143 475.827C208.054 475.827 210.631 476.295 211.334 477.701ZM262.171 479.575C264.045 480.746 265.217 480.981 265.802 480.161C266.271 479.341 271.776 478.872 279.976 478.872C293.446 478.872 293.446 478.872 292.744 481.449C288.878 493.866 275.29 501.48 263.694 497.731C255.729 495.037 251.277 489.883 249.403 481.449L248.583 477.701H254.089C257.017 477.701 260.648 478.521 262.171 479.575Z" fill="black"/>
<path d="M231.247 498.317C230.544 499.957 230.076 505.462 230.076 510.616C230.076 521.159 232.301 525.024 238.041 524.321C244.249 523.618 249.286 510.031 247.06 500.074C245.655 493.514 243.546 496.677 242.961 506.516C242.258 515.536 240.501 521.041 238.275 521.041C237.69 521.041 236.284 519.753 235.23 518.113C233.824 515.887 233.473 512.959 233.707 505.228C234.175 495.154 233.356 492.812 231.247 498.317Z" fill="black"/>
<path d="M191.655 504.876C191.89 506.281 193.764 508.507 195.989 509.795C203.135 513.895 223.048 511.552 223.048 506.516C223.048 503.821 221.642 503.47 217.542 505.227C211.568 507.687 202.198 507.453 196.692 504.641C191.07 501.713 191.187 501.713 191.655 504.876Z" fill="black"/>
<path d="M255.378 506.748C254.558 508.154 258.658 512.371 263.109 514.714C269.551 517.993 286.302 514.831 286.302 510.38C286.302 509.442 284.896 509.325 281.968 510.028C274.237 511.785 265.92 511.082 261.469 508.388C256.901 505.577 256.315 505.343 255.378 506.748Z" fill="black"/>
<path d="M209.109 556.65C206.063 560.282 211.92 565.437 215.2 562.157C216.254 561.102 215.902 560.634 214.028 560.165C212.623 559.813 211.334 558.408 211.1 557.002C210.748 554.776 210.631 554.776 209.109 556.65Z" fill="black"/>
<path d="M259.126 565.669C257.837 566.957 255.494 567.895 253.269 567.895C248.349 567.895 250.575 570.355 255.612 570.472C259.946 570.589 262.874 568.48 262.874 565.434C262.874 562.623 261.703 562.74 259.126 565.669Z" fill="black"/>
<path d="M203.837 599.874C199.035 608.542 188.024 627.401 184.744 632.555C183.339 635.015 182.05 637.592 182.05 638.411C182.05 639.231 180.176 642.98 177.95 646.728C175.725 650.477 173.851 653.991 173.851 654.459C173.851 655.045 175.49 657.388 177.365 659.847L180.879 664.299V686.906C180.879 700.728 180.41 709.748 179.707 710.216C178.887 710.685 178.887 711.622 179.707 713.144C180.293 714.316 180.879 722.984 180.879 732.238C180.879 741.491 181.23 751.565 181.582 754.611C182.284 759.296 182.753 760.116 184.861 759.765C187.204 759.413 187.321 758.945 186.853 744.42C186.618 736.22 186.853 729.544 187.438 729.544C188.024 729.544 192.592 736.455 197.746 744.771C205.36 757.422 207.469 759.999 209.694 759.999C211.217 759.999 212.505 759.53 212.505 759.062C212.505 757.891 201.26 739.032 195.638 730.715C193.178 727.201 189.898 721.695 188.258 718.533L185.33 712.676L188.61 710.333C194.349 706.233 208.171 693.934 208.64 692.528C208.991 691.357 203.603 684.563 186.97 665.236C177.716 654.576 178.067 655.748 182.753 647.314C185.096 643.331 188.141 637.24 189.664 634.077C191.07 630.798 194.467 624.472 197.278 620.021C206.18 605.613 211.1 593.665 208.171 593.665C207.586 593.665 205.712 596.477 203.837 599.874ZM195.286 682.689C199.62 687.726 203.135 692.177 203.135 692.528C203.135 693.231 187.673 704.008 187.321 703.539C186.384 702.485 185.564 673.318 186.501 673.318C187.087 673.318 191.07 677.535 195.286 682.689Z" fill="black"/>
<path d="M268.731 596.594C268.731 597.882 273.885 609.479 280.327 622.364C286.653 635.249 292.861 648.485 293.915 651.765L296.024 657.739L288.058 668.164C283.607 673.904 277.282 681.752 273.768 685.735C270.371 689.717 267.559 693.466 267.559 694.051C267.559 694.754 272.362 699.908 278.336 705.531L289.113 715.839L285.598 722.398C283.724 726.029 279.742 732.823 276.579 737.509C273.533 742.194 269.434 749.222 267.559 752.971L264.045 759.999H266.857C269.199 759.999 270.956 757.891 277.399 746.763C281.733 739.617 286.418 731.183 287.824 728.138C289.23 725.092 290.752 722.633 291.338 722.515C291.807 722.515 292.158 730.949 292.158 741.257C292.158 759.179 292.275 759.999 294.501 759.999C296.844 759.999 296.844 759.179 296.844 712.442C296.844 665.939 296.844 664.767 299.303 661.487C300.709 659.496 301.529 657.036 301.178 655.982C298.366 646.845 274.471 600.342 270.371 596.008C268.965 594.602 268.731 594.602 268.731 596.594ZM292.158 691.006V711.153L286.536 705.999C283.49 703.188 279.156 699.44 276.93 697.8L272.831 694.637L276.579 690.186C278.687 687.609 282.904 682.338 285.95 678.355C289.113 674.372 291.69 671.093 291.924 670.975C292.041 670.975 292.158 679.995 292.158 691.006Z" fill="black"/>
</g>
<path d="M94.0832 225.977C93.8437 225.288 93.9784 224.225 94.4874 222.788C94.9963 221.322 95.6848 219.675 96.553 217.849C97.4511 215.993 98.439 214.077 99.5168 212.101C100.624 210.125 101.627 208.284 102.525 206.578C103.454 204.841 104.202 203.374 104.771 202.177C105.369 200.949 105.609 200.171 105.489 199.842C105.13 199.722 104.741 199.767 104.322 199.976C103.932 200.186 103.528 200.396 103.109 200.605C102.72 200.815 102.331 200.934 101.942 200.964C101.552 200.994 101.208 200.785 100.909 200.336C100.759 200.126 100.699 199.932 100.729 199.752C100.789 199.542 100.879 199.348 100.999 199.168C101.148 198.988 101.298 198.839 101.448 198.719C101.627 198.569 101.777 198.45 101.897 198.36C105.31 196.115 108.543 194.363 111.596 193.106C114.68 191.848 117.434 190.995 119.859 190.546C122.314 190.097 124.365 190.007 126.011 190.277C127.688 190.546 128.84 191.1 129.469 191.938C130.097 192.747 130.127 193.809 129.559 195.127C129.02 196.414 127.747 197.866 125.742 199.482C123.766 201.099 120.967 202.835 117.344 204.691C113.752 206.518 109.231 208.389 103.783 210.305C103.483 210.784 103.558 211.323 104.007 211.921C104.486 212.52 105.175 213.179 106.073 213.897C107.001 214.586 108.079 215.304 109.306 216.053C110.564 216.801 111.821 217.564 113.078 218.343C114.366 219.091 115.578 219.84 116.716 220.588C117.883 221.307 118.841 221.995 119.59 222.654C120.338 223.312 120.817 223.926 121.027 224.495C121.266 225.064 121.071 225.558 120.443 225.977C120.413 226.007 120.218 225.902 119.859 225.662C119.53 225.393 119.111 225.064 118.602 224.674C118.093 224.255 117.539 223.806 116.94 223.327C116.371 222.848 115.818 222.399 115.279 221.98C114.77 221.561 114.321 221.202 113.931 220.902C113.572 220.603 113.363 220.423 113.303 220.364C111.507 219.226 109.71 218.103 107.914 216.996C106.118 215.888 104.367 214.646 102.66 213.268C102.091 213.089 101.523 213.388 100.954 214.167C100.385 214.945 99.8311 215.948 99.2922 217.175C98.7534 218.373 98.2145 219.66 97.6756 221.037C97.1667 222.384 96.6877 223.567 96.2387 224.585C95.7896 225.573 95.3855 226.246 95.0262 226.605C94.667 226.995 94.3526 226.785 94.0832 225.977ZM104.771 207.251C105.429 207.461 106.312 207.446 107.42 207.206C108.558 206.967 109.8 206.563 111.147 205.994C112.524 205.425 113.946 204.736 115.413 203.928C116.91 203.12 118.332 202.282 119.679 201.413C121.027 200.515 122.254 199.617 123.362 198.719C124.499 197.821 125.382 196.998 126.011 196.249C126.64 195.471 126.969 194.812 126.999 194.273C127.059 193.735 126.7 193.39 125.921 193.241C122.688 193.181 119.934 193.345 117.659 193.735C115.383 194.094 113.438 194.782 111.821 195.8C110.204 196.818 108.842 198.21 107.734 199.976C106.627 201.743 105.639 203.988 104.771 206.712V207.251ZM124.619 225.977C125.846 222.025 126.954 218.897 127.942 216.591C128.96 214.256 129.798 212.625 130.457 211.697C131.145 210.769 131.609 210.469 131.849 210.799C132.088 211.128 132.058 211.966 131.759 213.313C131.49 214.661 130.891 216.472 129.963 218.747C129.065 220.992 127.792 223.567 126.146 226.471C125.906 226.561 125.622 226.575 125.293 226.516C124.963 226.456 124.739 226.276 124.619 225.977ZM132.477 204.377C132.418 204.227 132.388 203.958 132.388 203.569C132.388 203.18 132.418 202.94 132.477 202.85C133.166 202.611 133.69 202.581 134.049 202.761C134.408 202.94 134.633 203.21 134.723 203.569C134.813 203.898 134.798 204.257 134.678 204.647C134.588 205.036 134.423 205.335 134.184 205.545C133.944 205.724 133.66 205.754 133.331 205.635C133.031 205.485 132.747 205.066 132.477 204.377ZM140.111 225.977C138.585 225.468 137.567 224.674 137.058 223.597C136.579 222.519 136.444 221.307 136.654 219.959C136.893 218.582 137.417 217.145 138.225 215.648C139.034 214.122 139.992 212.67 141.099 211.293C142.207 209.916 143.375 208.673 144.602 207.565C145.829 206.458 146.982 205.62 148.06 205.051C149.167 204.482 150.11 204.257 150.889 204.377C151.667 204.497 152.146 205.096 152.326 206.173C152.416 206.652 152.356 207.176 152.146 207.745C151.966 208.314 151.697 208.868 151.338 209.407C151.009 209.916 150.619 210.395 150.17 210.844C149.751 211.263 149.332 211.577 148.913 211.787C148.524 211.996 148.164 212.071 147.835 212.011C147.536 211.951 147.341 211.697 147.251 211.248C147.611 210.649 148.015 210.05 148.464 209.451C148.913 208.823 149.347 208.239 149.766 207.7C149.586 207.371 149.242 207.296 148.733 207.476C148.224 207.655 147.611 208.015 146.892 208.553C146.174 209.092 145.41 209.781 144.602 210.619C143.824 211.427 143.06 212.31 142.312 213.268C141.563 214.226 140.89 215.229 140.291 216.277C139.722 217.295 139.303 218.283 139.034 219.241C138.764 220.199 138.689 221.097 138.809 221.935C138.959 222.744 139.393 223.402 140.111 223.911C141.099 224.001 142.237 223.911 143.524 223.642C144.812 223.342 146.129 222.968 147.476 222.519C148.823 222.07 150.155 221.591 151.473 221.082C152.82 220.543 154.032 220.049 155.11 219.6C156.218 219.151 157.146 218.807 157.894 218.567C158.672 218.298 159.181 218.223 159.421 218.343C159.99 218.642 160.02 219.076 159.511 219.645C159.032 220.214 158.208 220.828 157.041 221.486C155.873 222.145 154.481 222.803 152.865 223.462C151.278 224.091 149.676 224.645 148.06 225.124C146.443 225.573 144.916 225.902 143.479 226.111C142.042 226.291 140.92 226.246 140.111 225.977ZM179.673 224.944C177.757 222.309 176.216 220.139 175.048 218.433C173.88 216.696 172.922 215.409 172.174 214.571C171.426 213.732 170.812 213.328 170.333 213.358C169.854 213.388 169.33 213.852 168.761 214.75C168.222 215.619 167.549 216.906 166.74 218.612C165.932 220.319 164.824 222.429 163.417 224.944C163.238 225.273 163.043 225.483 162.834 225.573C162.654 225.632 162.474 225.632 162.295 225.573C162.115 225.483 161.95 225.333 161.801 225.124C161.651 224.914 161.531 224.689 161.442 224.45C161.352 224.151 161.457 223.582 161.756 222.744C162.055 221.875 162.489 220.843 163.058 219.645C163.657 218.418 164.345 217.07 165.124 215.604C165.932 214.107 166.77 212.58 167.639 211.023C168.537 209.466 169.42 207.925 170.288 206.398C171.186 204.871 172.009 203.464 172.758 202.177C173.536 200.86 174.225 199.707 174.823 198.719C175.422 197.731 175.856 196.998 176.126 196.519C176.335 196.369 176.545 196.354 176.754 196.474C176.994 196.594 177.188 196.788 177.338 197.058C177.518 197.297 177.638 197.566 177.697 197.866C177.757 198.135 177.727 198.36 177.608 198.539L173.566 205.635V206.667C174.195 206.817 174.973 206.772 175.901 206.533C176.859 206.263 177.877 205.889 178.955 205.41C180.062 204.931 181.185 204.377 182.323 203.748C183.46 203.09 184.538 202.446 185.556 201.818C186.604 201.159 187.532 200.545 188.34 199.976C189.178 199.378 189.837 198.899 190.316 198.539C190.705 198.33 191.049 198.27 191.349 198.36C191.678 198.45 191.917 198.614 192.067 198.854C192.247 199.093 192.322 199.378 192.292 199.707C192.262 200.036 192.112 200.336 191.843 200.605C191.004 201.473 190.002 202.222 188.834 202.85C187.696 203.449 186.484 204.003 185.197 204.512C183.909 204.991 182.592 205.455 181.245 205.904C179.928 206.323 178.655 206.787 177.428 207.296C176.201 207.805 175.078 208.374 174.06 209.002C173.042 209.631 172.204 210.38 171.545 211.248C171.935 211.577 172.443 212.101 173.072 212.819C173.731 213.508 174.434 214.286 175.183 215.154C175.961 216.023 176.739 216.951 177.518 217.939C178.296 218.897 178.985 219.84 179.583 220.768C180.212 221.666 180.721 222.489 181.11 223.237C181.529 223.956 181.739 224.525 181.739 224.944V225.977C181.499 226.096 181.275 226.141 181.065 226.111C180.886 226.052 180.706 225.962 180.526 225.842C180.347 225.722 180.182 225.588 180.032 225.438C179.913 225.258 179.793 225.094 179.673 224.944ZM222.378 229.075C222.109 228.806 221.989 228.237 222.019 227.369C222.049 226.501 222.139 225.558 222.289 224.54C222.438 223.492 222.573 222.489 222.693 221.531C222.842 220.573 222.902 219.885 222.872 219.465C221.376 219.106 220.283 218.732 219.594 218.343C218.906 217.954 218.487 217.549 218.337 217.13C218.217 216.711 218.307 216.277 218.606 215.828C218.936 215.349 219.355 214.87 219.864 214.391C220.403 213.912 220.986 213.418 221.615 212.909C222.244 212.37 222.798 211.831 223.277 211.293C223.785 210.754 224.16 210.2 224.399 209.631C224.669 209.032 224.684 208.419 224.444 207.79C223.726 207.94 222.947 207.91 222.109 207.7C221.301 207.491 220.717 207.012 220.358 206.263C220.118 205.814 220.253 205.32 220.762 204.781C221.271 204.213 221.884 203.629 222.603 203.03C223.321 202.431 224.01 201.803 224.669 201.144C225.357 200.485 225.776 199.842 225.926 199.213C226.375 197.147 226.734 195.621 227.004 194.633C227.303 193.645 227.528 193.046 227.677 192.836C227.857 192.627 227.977 192.717 228.037 193.106C228.126 193.495 228.186 194.049 228.216 194.767C228.246 195.486 228.276 196.294 228.306 197.192C228.336 198.09 228.396 198.914 228.486 199.662C228.935 199.872 229.384 199.857 229.833 199.617C230.282 199.348 230.731 199.033 231.18 198.674C231.659 198.315 232.138 198.001 232.617 197.731C233.096 197.462 233.59 197.432 234.099 197.641C234.248 198.33 234.159 198.899 233.829 199.348C233.53 199.767 233.111 200.141 232.572 200.47C232.033 200.77 231.434 201.039 230.776 201.279C230.147 201.488 229.578 201.743 229.069 202.042C228.59 202.341 228.216 202.701 227.947 203.12C227.707 203.539 227.722 204.078 227.992 204.736C229.668 204.587 230.925 204.557 231.764 204.647C232.602 204.736 233.126 204.931 233.335 205.23C233.545 205.5 233.5 205.874 233.201 206.353C232.931 206.802 232.527 207.311 231.988 207.88C231.449 208.449 230.836 209.077 230.147 209.766C229.488 210.424 228.86 211.113 228.261 211.831C227.692 212.52 227.228 213.224 226.869 213.942C226.51 214.631 226.375 215.304 226.465 215.963C226.644 215.933 226.974 215.918 227.453 215.918C227.932 215.918 228.441 215.918 228.98 215.918C229.518 215.918 230.027 215.918 230.506 215.918C231.015 215.918 231.36 215.933 231.539 215.963C232.407 216.023 232.871 216.142 232.931 216.322C233.021 216.502 232.856 216.726 232.437 216.996C232.048 217.235 231.494 217.49 230.776 217.759C230.057 218.028 229.339 218.283 228.62 218.522C227.932 218.762 227.318 218.971 226.779 219.151C226.24 219.331 225.956 219.435 225.926 219.465C225.507 220.094 225.267 220.932 225.207 221.98C225.178 223.028 225.148 224.106 225.118 225.213C225.088 226.291 224.968 227.294 224.758 228.222C224.579 229.15 224.13 229.794 223.411 230.153L222.378 229.075ZM221.929 215.424C221.87 215.484 221.765 215.648 221.615 215.918C221.495 216.187 221.42 216.367 221.391 216.457C222.289 216.606 222.992 216.562 223.501 216.322C224.04 216.083 224.175 215.439 223.905 214.391C223.546 214.271 223.172 214.346 222.783 214.616C222.393 214.885 222.109 215.154 221.929 215.424ZM227.453 208.329C227.722 208.419 228.007 208.389 228.306 208.239C228.605 208.089 228.83 207.94 228.98 207.79H227.453V208.329ZM292.88 229.479C292.85 229.449 292.835 229.36 292.835 229.21C292.835 229.09 292.85 229 292.88 228.941C292.91 228.881 292.97 228.701 293.06 228.402C293.15 228.102 293.254 227.788 293.374 227.459C293.494 227.129 293.599 226.815 293.689 226.516C293.778 226.216 293.838 226.022 293.868 225.932C294.736 223.148 295.5 220.663 296.158 218.478C296.817 216.262 297.446 214.107 298.044 212.011C298.643 209.916 299.227 207.76 299.796 205.545C300.394 203.299 301.053 200.755 301.772 197.911V196.923C300.903 196.623 299.96 196.653 298.942 197.013C297.955 197.372 296.937 197.956 295.889 198.764C294.841 199.572 293.778 200.545 292.701 201.683C291.623 202.79 290.575 203.973 289.557 205.23C288.539 206.458 287.551 207.685 286.593 208.913C285.635 210.11 284.752 211.218 283.944 212.236C283.136 213.224 282.402 214.047 281.744 214.705C281.115 215.334 280.606 215.693 280.217 215.783C279.947 215.843 279.618 215.813 279.229 215.693C278.84 215.544 278.645 215.394 278.645 215.244V212.191C278.735 211.861 278.855 211.338 279.004 210.619C279.184 209.901 279.364 209.092 279.543 208.194C279.753 207.296 279.962 206.353 280.172 205.365C280.411 204.377 280.621 203.434 280.801 202.536C281.01 201.638 281.19 200.845 281.339 200.156C281.489 199.438 281.609 198.899 281.699 198.539C281.848 197.851 281.983 197.177 282.103 196.519C282.253 195.86 282.282 195.172 282.193 194.453C281.295 194.154 280.337 194.393 279.319 195.172C278.301 195.92 277.253 197.028 276.175 198.495C275.128 199.961 274.065 201.668 272.987 203.614C271.909 205.56 270.862 207.565 269.844 209.631C268.826 211.697 267.838 213.732 266.88 215.738C265.952 217.744 265.099 219.525 264.32 221.082C263.542 222.609 262.853 223.836 262.255 224.764C261.686 225.662 261.237 226.052 260.907 225.932C260.488 225.812 260.324 225.318 260.413 224.45C260.533 223.582 260.833 222.489 261.312 221.172C261.791 219.825 262.404 218.313 263.153 216.636C263.901 214.93 264.709 213.179 265.578 211.382C266.476 209.586 267.389 207.79 268.317 205.994C269.245 204.198 270.128 202.536 270.966 201.009C271.805 199.482 272.538 198.15 273.167 197.013C273.825 195.845 274.304 194.992 274.604 194.453C275.232 194.693 275.786 194.782 276.265 194.722C276.744 194.633 277.193 194.468 277.612 194.228C278.031 193.989 278.436 193.705 278.825 193.375C279.244 193.046 279.708 192.732 280.217 192.432C281.295 191.774 282.148 191.489 282.776 191.579C283.405 191.669 283.854 191.998 284.124 192.567C284.423 193.136 284.573 193.914 284.573 194.902C284.573 195.86 284.498 196.908 284.348 198.045C284.198 199.183 283.989 200.351 283.719 201.548C283.48 202.716 283.24 203.808 283.001 204.826C282.761 205.814 282.552 206.667 282.372 207.386C282.223 208.074 282.163 208.508 282.193 208.688C282.432 208.808 282.627 208.793 282.776 208.643C282.956 208.494 283.106 208.344 283.226 208.194C283.315 208.044 283.525 207.76 283.854 207.341C284.213 206.922 284.618 206.443 285.067 205.904C285.516 205.335 285.995 204.736 286.504 204.108C287.013 203.479 287.492 202.895 287.941 202.356C288.42 201.788 288.824 201.294 289.153 200.875C289.482 200.455 289.707 200.171 289.827 200.021C292.431 197.956 294.632 196.429 296.428 195.441C298.254 194.423 299.721 193.854 300.828 193.735C301.966 193.615 302.789 193.884 303.298 194.543C303.807 195.201 304.077 196.144 304.107 197.372C304.137 198.569 303.957 200.021 303.568 201.728C303.179 203.404 302.655 205.215 301.996 207.161C301.906 207.431 301.727 208 301.457 208.868C301.218 209.706 300.918 210.709 300.559 211.876C300.2 213.014 299.826 214.226 299.436 215.514C299.077 216.801 298.718 218.028 298.359 219.196C297.999 220.334 297.685 221.336 297.416 222.205C297.176 223.043 297.012 223.597 296.922 223.866C296.922 223.896 296.892 224.091 296.832 224.45C296.772 224.809 296.667 225.243 296.518 225.752C296.398 226.231 296.248 226.74 296.068 227.279C295.889 227.848 295.664 228.357 295.395 228.806C295.125 229.255 294.811 229.599 294.452 229.839C294.123 230.078 293.748 230.123 293.329 229.973C293.299 229.973 293.224 229.898 293.105 229.749C292.985 229.629 292.91 229.539 292.88 229.479ZM308.013 225.977C306.756 225.468 305.963 224.704 305.633 223.687C305.334 222.669 305.349 221.546 305.678 220.319C306.008 219.061 306.576 217.774 307.385 216.457C308.193 215.11 309.091 213.882 310.079 212.774C311.067 211.667 312.055 210.739 313.043 209.99C314.061 209.212 314.929 208.778 315.647 208.688C317.503 208.449 318.955 208.583 320.003 209.092C321.081 209.571 321.814 210.275 322.204 211.203C322.593 212.131 322.698 213.224 322.518 214.481C322.338 215.708 321.934 216.951 321.305 218.208C320.707 219.465 319.913 220.678 318.925 221.845C317.967 223.013 316.89 224.001 315.692 224.809C314.525 225.588 313.282 226.111 311.965 226.381C310.648 226.62 309.331 226.486 308.013 225.977ZM307.519 223.417C307.759 224.375 308.268 224.914 309.046 225.034C309.825 225.124 310.723 224.929 311.741 224.45C312.788 223.941 313.881 223.223 315.019 222.294C316.156 221.336 317.189 220.304 318.117 219.196C319.075 218.088 319.853 216.981 320.452 215.873C321.081 214.735 321.38 213.747 321.35 212.909C321.35 212.071 320.946 211.442 320.138 211.023C319.36 210.574 318.042 210.484 316.186 210.754C315.767 211.143 315.228 211.622 314.57 212.191C313.911 212.73 313.222 213.328 312.504 213.987C311.815 214.646 311.127 215.364 310.438 216.142C309.75 216.891 309.151 217.669 308.642 218.478C308.133 219.286 307.759 220.109 307.519 220.947C307.31 221.786 307.31 222.609 307.519 223.417ZM325.078 225.977C325.018 225.947 325.018 225.603 325.078 224.944C325.167 224.255 325.287 223.402 325.437 222.384C325.586 221.366 325.781 220.244 326.021 219.016C326.26 217.789 326.514 216.621 326.784 215.514C327.053 214.376 327.338 213.388 327.637 212.55C327.966 211.682 328.281 211.083 328.58 210.754C328.79 210.544 328.999 210.544 329.209 210.754C329.418 210.933 329.628 211.173 329.837 211.472C330.047 211.742 330.257 211.996 330.466 212.236C330.676 212.445 330.9 212.46 331.14 212.281C331.978 211.113 332.891 210.005 333.879 208.958C334.897 207.88 336.019 206.952 337.247 206.173C337.367 206.084 337.696 205.949 338.235 205.769C338.774 205.56 339.387 205.365 340.076 205.185C340.765 204.976 341.468 204.811 342.187 204.691C342.935 204.542 343.564 204.482 344.073 204.512C344.611 204.512 344.971 204.647 345.15 204.916C345.36 205.156 345.27 205.575 344.881 206.173C343.085 206.203 341.408 206.727 339.851 207.745C338.295 208.763 336.858 210.02 335.541 211.517C334.223 213.014 333.026 214.646 331.948 216.412C330.87 218.148 329.927 219.765 329.119 221.262C328.341 222.759 327.682 224.001 327.143 224.989C326.634 225.977 326.26 226.471 326.021 226.471C325.991 226.471 325.856 226.411 325.616 226.291C325.377 226.141 325.197 226.037 325.078 225.977ZM349.686 225.977C349.656 225.917 349.641 225.752 349.641 225.483C349.641 225.213 349.656 225.034 349.686 224.944C349.776 224.615 349.94 224.046 350.18 223.237C350.419 222.399 350.674 221.531 350.943 220.633C351.213 219.705 351.467 218.837 351.707 218.028C351.946 217.22 352.111 216.651 352.2 216.322C352.32 215.903 352.455 215.424 352.605 214.885C352.754 214.316 352.784 213.777 352.694 213.268C352.245 213.209 351.692 213.268 351.033 213.448C350.374 213.598 349.716 213.732 349.057 213.852C348.428 213.942 347.83 213.942 347.261 213.852C346.722 213.732 346.333 213.373 346.093 212.774C346.453 212.026 346.991 211.547 347.71 211.338C348.428 211.098 349.207 210.933 350.045 210.844C350.883 210.754 351.677 210.619 352.425 210.439C353.203 210.26 353.817 209.856 354.266 209.227C354.536 208.449 354.85 207.506 355.209 206.398C355.598 205.26 356.002 204.078 356.422 202.85C356.841 201.623 357.29 200.41 357.769 199.213C358.278 198.016 358.802 196.953 359.34 196.025C359.67 195.815 359.939 195.8 360.149 195.98C360.358 196.159 360.508 196.429 360.598 196.788C360.718 197.117 360.792 197.462 360.822 197.821C360.852 198.18 360.852 198.42 360.822 198.539C360.643 199.318 360.328 200.156 359.879 201.054C359.46 201.922 359.056 202.805 358.667 203.704C358.308 204.602 358.008 205.5 357.769 206.398C357.559 207.296 357.559 208.149 357.769 208.958H367.423C367.453 208.958 367.528 209.062 367.648 209.272C367.768 209.451 367.873 209.601 367.962 209.721C368.112 210.14 367.947 210.424 367.468 210.574C366.989 210.724 366.346 210.829 365.537 210.888C364.729 210.918 363.801 210.948 362.753 210.978C361.735 210.978 360.747 211.053 359.79 211.203C358.861 211.323 358.023 211.547 357.275 211.876C356.526 212.176 356.017 212.64 355.748 213.268C354.97 215.274 354.251 217.295 353.593 219.331C352.934 221.336 352.305 223.372 351.707 225.438C351.647 225.528 351.527 225.677 351.347 225.887C351.168 226.067 350.973 226.231 350.763 226.381C350.554 226.501 350.344 226.546 350.135 226.516C349.955 226.486 349.806 226.306 349.686 225.977ZM357.275 243.714C357.005 243.295 357.02 242.637 357.32 241.739C357.589 240.87 357.993 239.957 358.532 238.999C359.041 238.071 359.58 237.188 360.149 236.35C360.688 235.542 361.092 234.958 361.361 234.599C361.601 234.269 361.975 233.775 362.484 233.117C362.963 232.458 363.517 231.71 364.145 230.871C364.774 230.033 365.433 229.15 366.121 228.222C366.84 227.294 367.513 226.426 368.142 225.617C368.771 224.779 369.339 224.031 369.848 223.372C370.357 222.714 370.731 222.22 370.971 221.89C371.21 221.621 371.21 221.202 370.971 220.633C370.731 220.064 370.357 219.406 369.848 218.657C369.369 217.879 368.816 217.041 368.187 216.142C367.588 215.214 367.034 214.286 366.525 213.358C366.046 212.4 365.672 211.457 365.403 210.529C365.163 209.601 365.163 208.733 365.403 207.925C365.732 207.685 366.091 207.835 366.48 208.374C366.87 208.883 367.274 209.601 367.693 210.529C368.142 211.427 368.606 212.43 369.085 213.538C369.564 214.616 370.028 215.604 370.477 216.502C370.926 217.37 371.36 218.058 371.779 218.567C372.228 219.076 372.647 219.181 373.037 218.882C373.815 218.313 374.578 217.594 375.327 216.726C376.075 215.828 376.794 214.9 377.482 213.942C378.171 212.984 378.814 212.056 379.413 211.158C380.042 210.23 380.626 209.422 381.165 208.733C381.374 208.464 381.569 208.284 381.748 208.194C381.958 208.074 382.272 208.089 382.691 208.239C383.021 208.359 382.961 208.883 382.512 209.811C382.063 210.739 381.359 211.936 380.401 213.403C379.443 214.87 378.291 216.547 376.943 218.433C375.626 220.289 374.219 222.235 372.722 224.27C371.255 226.276 369.774 228.282 368.277 230.288C366.81 232.293 365.463 234.15 364.235 235.856C362.978 237.592 361.915 239.104 361.047 240.391C360.149 241.709 359.565 242.667 359.296 243.265C359.176 243.535 359.056 243.804 358.936 244.074C358.787 244.343 358.592 244.568 358.353 244.747C358.293 244.717 358.218 244.657 358.128 244.568C358.008 244.478 357.903 244.373 357.814 244.253C357.694 244.163 357.589 244.059 357.499 243.939C357.38 243.849 357.305 243.774 357.275 243.714Z" fill="white"/>
</g>
<defs>
<clipPath id="clip0">
<rect width="480" height="760" fill="white" transform="translate(0.236328)"/>
</clipPath>
<clipPath id="clip1">
<rect width="679.389" height="478.829" fill="white" transform="translate(-99.0767 281.171)"/>
</clipPath>
</defs>
</svg>
